<?xml version="1.0" standalone="no"?>
<!DOCTYPE svg PUBLIC "-//W3C//DTD SVG 20010904//EN"
 "http://www.w3.org/TR/2001/REC-SVG-20010904/DTD/svg10.dtd">
<svg version="1.0" xmlns="http://www.w3.org/2000/svg"
 width="1500.000000pt" height="500.000000pt" viewBox="0 0 1500.000000 500.000000"
 preserveAspectRatio="xMidYMid meet">

<g transform="translate(0.000000,500.000000) scale(0.100000,-0.100000)"
fill="#000000" stroke="none">
<path d="M0 2500 l0 -2500 7500 0 7500 0 0 2500 0 2500 -7500 0 -7500 0 0
-2500z m7283 1132 c22 -3 31 3 45 27 9 17 23 31 30 31 21 0 13 -14 -23 -43
-39 -31 -99 -41 -148 -24 l-29 9 33 34 32 33 16 -32 c11 -22 24 -33 44 -35z
m-513 -30 c0 -10 6 -24 13 -31 10 -11 7 -12 -13 -6 -39 12 -52 25 -39 41 16
20 39 17 39 -4z m120 8 c13 -8 12 -11 -5 -24 -11 -9 -27 -16 -37 -16 -14 0
-14 4 -5 25 13 27 23 30 47 15z m1019 -539 c-7 -20 -27 -66 -46 -104 -18 -37
-43 -91 -54 -120 -11 -28 -43 -88 -71 -132 -28 -43 -134 -245 -235 -448 -101
-203 -187 -367 -190 -363 -3 3 -6 124 -6 268 l1 263 36 17 c37 19 59 51 70
105 8 37 -19 73 -56 73 -17 0 -8 10 37 38 110 70 343 252 384 300 47 55 93
138 112 202 l14 45 8 -54 c5 -35 3 -67 -4 -90z m-695 -377 l58 -46 -39 -18
c-54 -24 -64 -55 -48 -140 10 -53 9 -70 -1 -90 -24 -45 -95 -227 -139 -357
-24 -71 -44 -121 -44 -113 -2 33 61 373 90 489 29 112 31 134 26 223 -6 96 -6
98 16 98 12 0 48 -21 81 -46z m2277 -473 c-43 -12 -65 -93 -65 -241 -1 -69 2
-154 6 -190 l7 -65 -15 60 c-9 36 -15 112 -16 190 -1 183 22 256 81 254 l26
-1 -24 -7z m68 -112 c6 -27 11 -60 11 -72 -1 -36 -16 1 -25 57 -3 27 -9 55
-13 64 -3 9 -1 13 5 9 6 -4 16 -30 22 -58z m-650 -223 c-18 -37 -75 -123 -126
-191 -51 -69 -90 -125 -86 -125 22 0 116 75 188 152 82 88 101 98 70 39 -21
-41 -105 -113 -216 -187 -103 -68 -149 -113 -149 -146 0 -11 -16 -39 -36 -61
-21 -23 -71 -111 -115 -201 -55 -115 -78 -153 -78 -133 -1 27 100 232 163 331
18 28 36 57 40 64 15 25 -15 11 -67 -32 -61 -50 -107 -76 -134 -76 -10 0 12
17 47 38 107 61 257 221 400 424 69 97 127 175 128 173 2 -2 -11 -33 -29 -69z
m634 -203 c-15 -65 -28 -147 -28 -183 0 -60 2 -64 25 -70 24 -6 25 -9 25 -83
0 -55 -4 -77 -12 -77 -7 0 -13 -4 -13 -8 0 -17 12 -21 36 -12 15 6 24 6 24 0
0 -13 -48 -35 -57 -26 -12 12 -16 127 -4 139 14 14 15 47 1 47 -5 0 -10 -9
-10 -20 0 -11 -7 -20 -15 -20 -19 0 -72 -73 -80 -111 -4 -17 -15 -33 -26 -37
-16 -6 -73 -97 -281 -447 l-30 -50 32 30 c41 39 100 128 190 288 39 70 73 127
75 127 8 0 -63 -148 -104 -219 -50 -85 -146 -213 -195 -260 -34 -33 -36 -33
-36 -13 0 31 33 93 99 187 109 155 140 233 121 304 -18 68 -73 79 -169 36
l-56 -26 -68 -212 c-37 -117 -74 -246 -82 -287 -31 -158 -37 -180 -55 -202
l-19 -23 -2 25 c-4 46 2 75 25 135 44 111 43 216 -4 369 l-20 65 -58 -2 c-53
-2 -57 0 -60 21 -7 46 38 69 85 45 15 -8 34 -12 43 -9 46 14 185 78 201 92 18
16 18 18 -7 41 l-25 23 -29 -20 c-47 -34 -78 -2 -49 51 24 45 -1 40 -54 -10
-61 -58 -78 -50 -27 14 17 21 30 42 30 46 0 24 -40 3 -96 -51 -63 -61 -80 -68
-114 -50 -15 8 -25 5 -46 -15 -15 -14 -35 -25 -45 -25 -16 0 -19 8 -18 53 0
28 7 70 14 92 14 40 14 40 11 -37 -4 -92 2 -93 86 -7 32 33 62 59 68 59 20 0
9 -25 -27 -62 -20 -21 -34 -40 -31 -44 10 -10 50 16 111 73 63 58 107 71 107
32 0 -15 4 -19 15 -15 8 3 22 9 30 12 23 9 28 -20 11 -55 -9 -16 -16 -37 -16
-46 0 -27 52 8 106 70 44 53 88 85 114 85 6 0 8 -4 5 -10 -3 -5 0 -10 8 -10
25 0 8 -35 -45 -96 -27 -31 -47 -58 -44 -61 2 -3 30 0 60 7 31 6 70 9 86 5 38
-8 70 -49 70 -89 l0 -31 35 40 c53 61 110 145 128 193 10 24 17 70 17 106 0
37 6 76 16 95 22 43 50 189 60 307 l9 99 3 -82 c2 -62 -4 -110 -25 -200z
m-1798 124 c17 -13 17 -16 -3 -83 -50 -164 -233 -362 -403 -438 -46 -20 -63
-36 -111 -103 -80 -111 -111 -168 -103 -193 3 -11 10 -20 15 -20 25 0 69 26
117 70 30 28 59 50 64 50 15 0 10 -26 -11 -53 -41 -52 -15 -64 43 -19 20 15
52 40 72 56 40 32 55 29 35 -9 -7 -14 -10 -28 -6 -32 11 -11 128 53 163 90 42
43 173 228 173 243 0 7 -7 15 -16 18 -30 11 -12 50 28 61 46 13 81 46 118 111
30 52 79 108 88 100 10 -11 -9 -55 -43 -97 -19 -24 -35 -50 -35 -57 0 -16 37
-7 100 22 38 18 50 31 77 85 47 94 83 127 83 78 0 -13 -11 -38 -25 -57 -15
-20 -25 -47 -25 -67 0 -26 -5 -34 -25 -39 -14 -3 -25 -9 -25 -14 0 -17 -144
-221 -201 -283 -46 -51 -59 -71 -50 -80 6 -6 11 -37 11 -69 0 -55 1 -58 25
-58 25 0 35 8 89 71 19 23 31 30 34 21 2 -8 -8 -26 -22 -41 -55 -57 -20 -70
44 -16 50 42 80 46 80 11 0 -13 6 -26 13 -29 20 -7 80 14 115 39 41 32 42 11
1 -27 -53 -50 -131 -51 -150 -1 l-10 25 -37 -36 c-40 -39 -60 -45 -92 -25 -15
10 -22 9 -38 -5 -43 -39 -79 1 -69 76 3 20 2 37 -1 37 -3 0 -39 -34 -79 -77
-40 -42 -76 -73 -80 -70 -3 4 3 17 14 30 50 55 33 65 -24 13 -76 -67 -111 -69
-92 -3 5 17 7 32 5 35 -3 2 -22 -8 -43 -22 -43 -30 -97 -34 -111 -10 -8 14
-16 12 -62 -20 -61 -42 -72 -44 -92 -14 l-14 21 -45 -26 c-52 -31 -71 -33 -89
-12 -22 27 -39 16 -85 -55 -50 -78 -91 -112 -106 -89 -13 19 -3 83 21 129 28
55 74 90 118 90 36 1 39 4 104 103 37 56 66 102 65 104 -2 1 -23 -3 -47 -8
-85 -20 -160 6 -160 54 0 19 2 18 29 -7 27 -26 35 -28 83 -24 69 6 136 38 189
91 23 23 96 120 162 215 115 165 191 252 220 252 7 0 21 -6 32 -13z m1702
-109 c-3 -8 -6 -5 -6 6 -1 11 2 17 5 13 3 -3 4 -12 1 -19z m-297 -39 c-12 -22
-30 -25 -30 -6 0 17 21 38 32 31 4 -3 3 -14 -2 -25z m-2392 -158 c-3 -26 -24
-89 -47 -140 -24 -51 -41 -94 -39 -97 3 -2 47 7 99 21 239 64 269 70 269 51 0
-7 -12 -18 -27 -24 -39 -15 -311 -82 -334 -82 -10 0 -24 -10 -31 -22 -7 -12
-64 -98 -125 -191 -139 -207 -147 -237 -32 -112 49 53 75 55 45 4 -24 -41 -12
-49 24 -14 28 27 60 29 60 4 0 -9 3 -9 14 0 8 6 41 13 74 14 59 3 61 2 44 -16
-13 -14 -26 -18 -54 -14 -29 4 -41 0 -59 -19 -24 -26 -39 -23 -39 7 0 26 -12
24 -40 -6 -27 -28 -48 -32 -56 -10 -5 12 -16 7 -50 -25 -47 -43 -61 -48 -70
-25 -5 12 -16 7 -50 -25 -48 -44 -45 -43 -68 -34 -22 8 -20 47 5 95 21 41 20
69 -2 69 -7 0 -45 -33 -84 -73 -40 -41 -86 -79 -103 -85 l-32 -11 0 42 -1 42
-27 -31 c-37 -43 -72 -60 -83 -43 -5 8 -9 24 -9 37 0 31 -11 28 -56 -16 -48
-47 -91 -76 -97 -65 -2 4 1 35 8 69 14 64 50 143 114 247 21 35 46 90 56 122
9 32 33 97 52 144 39 94 64 173 58 179 -7 7 -108 -154 -219 -350 -126 -223
-162 -280 -235 -376 -43 -57 -57 -69 -59 -53 -4 27 27 85 131 241 50 74 110
175 133 225 41 87 80 225 64 225 -11 0 -109 -123 -167 -210 -27 -41 -91 -147
-143 -235 -107 -184 -166 -275 -210 -325 l-31 -35 7 35 c3 19 23 62 44 95 22
33 48 81 59 107 11 26 46 89 79 140 72 114 144 240 139 244 -2 2 -36 -34 -76
-81 -193 -225 -310 -297 -376 -230 -32 31 -34 104 -5 153 11 17 22 32 25 32 3
0 2 -37 -1 -82 l-7 -81 37 6 c92 15 172 76 311 237 46 53 102 114 125 136 23
21 50 56 61 76 16 32 45 58 63 58 9 0 -6 -33 -33 -75 -41 -62 -43 -65 -33 -65
5 0 28 28 50 63 41 64 80 95 102 82 9 -5 11 -27 7 -72 -4 -59 -3 -64 10 -50 9
9 34 53 57 98 44 89 89 135 107 109 36 -56 -77 -362 -257 -694 -7 -12 -15 -32
-19 -45 l-7 -23 31 18 c18 11 82 65 144 122 113 103 184 159 192 151 10 -11
-38 -71 -97 -119 -59 -48 -108 -104 -108 -122 0 -23 32 0 92 64 49 52 68 66
68 52 0 -10 -11 -37 -25 -59 -26 -43 -32 -75 -13 -75 6 0 45 34 85 76 60 61
79 75 100 72 41 -5 51 -30 31 -85 -9 -26 -15 -49 -13 -51 2 -2 20 5 39 17 45
28 89 90 161 226 32 60 64 120 72 132 15 22 14 23 -22 23 -21 0 -87 -12 -147
-27 -93 -24 -107 -30 -102 -45 3 -11 0 -18 -8 -18 -17 0 -38 20 -38 37 0 14
113 51 258 84 l94 21 75 159 c42 87 80 156 86 152 5 -3 7 -27 5 -52z m3062
-115 c0 -14 -4 -28 -10 -31 -6 -4 -10 7 -10 24 0 17 5 31 10 31 6 0 10 -11 10
-24z m-210 -293 c0 -28 -3 -54 -8 -57 -4 -2 -7 14 -7 37 0 23 -3 62 -7 87 -7
44 -7 45 7 15 8 -16 14 -53 15 -82z m-2814 -27 c11 -44 -20 -65 -35 -23 -5 12
-6 28 -4 35 8 21 32 13 39 -12z"/>
<path d="M9080 1324 c-27 -24 -40 -45 -40 -62 l0 -25 26 24 c25 23 70 99 59
99 -3 0 -23 -16 -45 -36z"/>
<path d="M8936 1120 c-38 -16 -74 -34 -79 -39 -6 -6 -2 -39 11 -88 11 -43 24
-103 28 -133 l7 -55 22 52 c21 47 105 278 105 289 0 10 -29 2 -94 -26z"/>
<path d="M8747 1099 c-28 -16 -20 -29 18 -29 38 0 46 13 17 29 -11 6 -24 6
-35 0z"/>
<path d="M7648 1732 c-35 -38 -100 -120 -143 -183 -43 -63 -99 -141 -124 -174
l-45 -59 79 54 c123 84 233 200 277 290 39 79 51 130 32 137 -6 2 -40 -27 -76
-65z"/>
<path d="M7948 1466 c-50 -19 -62 -30 -96 -81 -22 -33 -76 -105 -120 -159 -75
-94 -140 -201 -129 -212 17 -17 159 96 230 183 30 38 89 119 131 181 85 123
84 127 -16 88z"/>
<path d="M7794 1409 c-3 -6 -1 -16 5 -22 9 -9 14 -8 21 3 5 8 10 18 10 23 0
11 -28 8 -36 -4z"/>
<path d="M7023 999 c-29 -19 -61 -71 -78 -127 -6 -21 -5 -23 14 -13 11 6 33
30 50 54 16 23 41 53 55 66 14 14 26 28 26 33 0 15 -34 8 -67 -13z"/>
<path d="M6593 1188 c-5 -7 -15 -26 -21 -41 -16 -37 3 -25 24 15 16 31 14 48
-3 26z"/>
</g>
</svg>
