<?xml version="1.0" standalone="no"?>
<!DOCTYPE svg PUBLIC "-//W3C//DTD SVG 20010904//EN"
 "http://www.w3.org/TR/2001/REC-SVG-20010904/DTD/svg10.dtd">
<svg version="1.0" xmlns="http://www.w3.org/2000/svg"
 width="1414.000000pt" height="2000.000000pt" viewBox="0 0 1414.000000 2000.000000"
 preserveAspectRatio="xMidYMid meet">

<g transform="translate(0.000000,2000.000000) scale(0.100000,-0.100000)"
fill="#000000" stroke="none">
<path d="M0 10000 l0 -10000 7070 0 7070 0 0 993 c-1 679 -4 986 -11 974 -19
-32 -29 -17 -29 44 0 52 3 62 20 66 20 5 20 14 20 8964 l0 8959 -7070 0 -7070
0 0 -10000z m2290 8171 l0 -158 43 42 c50 51 107 70 184 62 70 -7 109 -32 136
-87 20 -42 22 -62 25 -282 l4 -238 -51 0 -51 0 0 203 c-1 228 -7 272 -46 306
-24 20 -36 23 -90 19 -50 -3 -69 -9 -90 -28 -54 -51 -58 -69 -62 -292 l-4
-208 -44 0 -44 0 0 410 0 410 45 0 45 0 0 -159z m1900 -91 c0 -137 4 -250 9
-250 5 0 66 63 136 140 l127 140 55 0 56 0 -19 -22 c-10 -13 -62 -68 -116
-124 -54 -56 -98 -106 -98 -112 0 -7 57 -86 126 -177 l125 -165 -59 0 -59 0
-99 135 c-54 74 -101 135 -104 135 -3 0 -22 -14 -43 -31 l-37 -30 0 -105 0
-104 -45 0 -45 0 0 410 0 410 45 0 45 0 0 -250z m-2100 165 l0 -45 -135 0
-135 0 0 -345 0 -345 -50 0 -50 0 0 345 0 345 -135 0 -135 0 0 45 0 45 320 0
320 0 0 -45z m1103 -150 c21 -10 50 -34 65 -53 27 -35 27 -38 32 -231 6 -218
12 -241 60 -241 26 0 30 -4 30 -29 0 -25 -4 -29 -37 -34 -72 -12 -128 19 -139
78 l-6 32 -47 -47 c-85 -85 -225 -95 -304 -22 -64 60 -62 199 4 261 44 41 88
53 218 59 l123 5 -4 60 c-4 50 -9 64 -32 84 -23 19 -38 23 -95 23 -77 0 -114
-19 -125 -66 -7 -25 -10 -26 -52 -21 -54 6 -57 8 -49 40 12 44 57 87 115 108
69 24 186 22 243 -6z m638 14 c47 -16 87 -56 99 -98 5 -20 10 -141 10 -268 l0
-233 -49 0 -50 0 -3 241 -3 241 -28 24 c-23 19 -39 24 -87 24 -48 0 -64 -4
-90 -26 -61 -51 -64 -69 -68 -296 l-4 -208 -49 0 -49 0 0 301 0 300 48 -3 47
-3 6 -50 c3 -27 7 -45 7 -39 4 22 72 79 109 91 50 15 112 16 154 2z m-331
-1900 l0 -410 -47 3 -48 3 -3 42 -3 43 -37 -39 c-53 -56 -137 -75 -224 -51
-53 15 -92 52 -119 112 -20 46 -23 69 -24 178 0 146 17 209 70 261 81 79 218
79 297 -1 l38 -38 0 154 0 154 50 0 50 0 0 -411z m-1460 352 c56 -21 125 -81
150 -129 14 -28 16 -25 -37 -41 l-42 -12 -48 50 c-56 57 -95 71 -203 71 -177
0 -272 -106 -272 -305 0 -116 21 -176 86 -240 60 -60 102 -75 209 -75 82 0
152 18 204 53 32 21 33 24 33 95 l0 72 -115 0 -115 0 0 45 0 45 165 0 165 0 0
-134 0 -134 -32 -28 c-117 -98 -329 -130 -483 -73 -81 30 -163 111 -196 194
-20 51 -24 77 -24 180 0 101 4 129 23 176 43 107 136 184 252 209 71 15 217 5
280 -19z m726 -182 c83 -39 124 -134 124 -281 0 -160 -59 -260 -174 -293 -156
-45 -300 21 -341 157 -22 76 -20 224 5 291 28 74 87 128 165 148 53 14 172 2
221 -22z m-406 -1879 l0 -410 -50 0 -50 0 0 410 0 410 50 0 50 0 0 -410z
m1200 365 l0 -45 -50 0 -50 0 0 45 0 45 50 0 50 0 0 -45z m890 -110 l0 -155
39 39 c47 47 104 65 179 58 65 -7 110 -32 137 -77 18 -32 20 -55 23 -282 l4
-248 -51 0 -51 0 0 220 c0 290 -8 310 -122 310 -69 0 -113 -27 -138 -83 -17
-37 -20 -66 -20 -244 l0 -203 -50 0 -50 0 0 410 0 410 50 0 50 0 0 -155z
m-2554 30 c18 -44 89 -219 157 -388 l125 -308 -55 3 -55 3 -43 110 -42 110
-181 3 -180 2 -44 -112 -44 -113 -52 -3 c-29 -2 -52 1 -52 5 0 4 70 180 156
391 l157 383 61 -3 60 -3 32 -80z m3194 -30 l0 -65 55 0 55 0 0 -35 0 -35 -55
0 -55 0 0 -208 c0 -243 3 -252 76 -252 44 0 44 0 44 -34 0 -34 -2 -35 -45 -42
-89 -13 -148 13 -164 73 -6 21 -11 134 -11 251 l0 212 -35 0 c-33 0 -35 2 -35
35 0 34 1 35 39 35 l39 0 13 65 c13 64 13 65 46 65 l33 0 0 -65z m-2204 -80
c14 -9 35 -32 46 -52 l21 -35 19 31 c34 53 83 76 165 76 84 0 116 -18 148 -81
18 -35 20 -63 23 -281 l4 -243 -51 0 -51 0 0 220 c0 283 -9 310 -110 310 -51
0 -91 -22 -116 -64 -17 -27 -19 -57 -22 -248 l-3 -218 -49 0 -49 0 -3 241 -3
241 -28 24 c-37 32 -112 34 -151 3 -56 -44 -61 -66 -64 -296 l-4 -213 -49 0
-49 0 0 300 0 300 44 0 c47 0 56 -11 56 -74 l0 -29 23 34 c35 53 99 82 170 76
32 -3 69 -13 83 -22z m674 -285 l0 -300 -50 0 -50 0 0 300 0 300 50 0 50 0 0
-300z m436 285 c20 -8 51 -32 70 -52 l34 -37 0 47 0 47 48 0 47 0 -5 -337 c-5
-355 -8 -372 -53 -421 -45 -49 -95 -66 -192 -67 -115 0 -172 24 -211 91 -15
25 -25 46 -23 48 2 2 25 7 51 10 44 7 48 6 62 -22 19 -37 54 -52 125 -52 100
0 141 50 141 175 l0 75 -39 -39 c-67 -67 -192 -79 -272 -27 -62 42 -83 100
-87 242 -3 92 0 136 12 178 18 62 65 122 111 142 41 18 138 17 181 -1z m1399
-160 c34 -88 74 -195 90 -239 l28 -79 16 44 c10 24 48 133 85 242 l69 197 48
0 c27 0 49 -4 49 -9 0 -13 -244 -641 -265 -682 -50 -97 -117 -142 -202 -137
-48 3 -48 3 -51 41 l-3 37 47 0 c43 0 51 4 90 45 24 24 48 62 55 83 11 37 7
48 -105 325 -64 157 -116 289 -116 292 0 3 23 5 52 3 l52 -3 61 -160z m-3811
-1528 c52 -182 120 -432 131 -482 6 -25 14 -4 46 120 21 83 62 236 92 340 l54
190 50 3 51 3 16 -53 c42 -149 137 -492 154 -558 l19 -75 13 55 c7 30 43 165
80 300 38 135 73 264 79 288 l12 42 55 0 c48 0 55 -2 50 -17 -3 -10 -49 -164
-101 -343 -53 -179 -103 -346 -111 -372 l-16 -48 -61 0 -62 0 -83 303 c-45
166 -82 309 -82 318 0 52 -18 10 -51 -119 -21 -81 -60 -226 -87 -322 l-48
-175 -65 0 -64 0 -112 375 c-61 206 -112 381 -112 388 -1 8 16 12 52 12 l52 0
49 -173z m1305 -13 c99 -29 151 -108 167 -251 l7 -63 -217 0 -216 0 0 -27 c0
-86 56 -167 125 -183 71 -17 150 8 182 56 14 22 21 25 52 19 50 -10 53 -13 36
-44 -66 -128 -309 -149 -421 -37 -54 53 -76 126 -76 245 1 152 54 244 164 282
65 23 128 24 197 3z m-993 -1609 c18 -44 89 -219 157 -388 l125 -308 -55 3
-55 3 -43 110 -42 110 -181 3 -180 2 -44 -112 -44 -113 -52 -3 c-29 -2 -52 1
-52 5 0 4 70 180 156 391 l157 383 61 -3 60 -3 32 -80z m642 -131 l3 -41 -52
-5 c-43 -4 -58 -11 -80 -36 -42 -47 -49 -90 -49 -294 l0 -188 -50 0 -50 0 0
300 0 300 45 0 45 0 0 -62 1 -63 21 40 c39 75 67 96 128 92 33 -2 35 -4 38
-43z m470 17 c79 -41 132 -142 132 -254 l0 -47 -216 0 -215 0 7 -47 c18 -127
96 -186 211 -163 40 9 59 20 83 47 28 31 35 34 65 29 47 -9 51 -21 22 -65 -33
-49 -96 -80 -179 -88 -132 -12 -225 33 -274 134 -27 54 -29 67 -29 173 0 106
2 120 28 173 49 98 128 140 253 133 45 -3 86 -12 112 -25z m-938 -1546 l0 -45
-225 0 -225 0 0 -145 0 -145 218 -2 217 -3 3 -42 3 -43 -220 0 -221 0 0 -155
0 -155 -55 0 -55 0 0 383 c0 211 3 387 7 390 3 4 129 7 280 7 l273 0 0 -45z
m408 -182 l3 -43 -41 0 c-61 0 -98 -24 -122 -78 -18 -41 -22 -73 -26 -244 l-5
-198 -43 0 -44 0 0 254 c0 139 -3 274 -6 300 l-7 46 52 0 51 0 0 -62 0 -63 25
53 c27 59 65 83 125 79 34 -2 35 -4 38 -44z m431 31 c98 -29 153 -110 167
-250 l7 -64 -217 0 -216 0 0 -27 c0 -86 56 -167 125 -183 70 -16 145 7 184 56
17 22 25 25 53 19 47 -10 49 -13 33 -44 -47 -92 -192 -134 -326 -95 -71 21
-132 83 -154 155 -19 67 -20 210 0 276 40 136 189 204 344 157z m668 -13 c80
-40 121 -113 130 -228 l6 -73 -217 0 -217 0 7 -47 c9 -65 42 -123 84 -147 67
-39 190 -17 221 40 11 22 18 25 48 20 53 -8 58 -20 28 -64 -33 -50 -95 -81
-179 -89 -132 -12 -225 33 -274 134 -27 54 -29 67 -29 173 0 106 2 120 28 173
49 98 128 140 253 133 45 -3 86 -12 111 -25z m-1681 -1596 c18 -44 89 -219
157 -388 l125 -308 -55 3 -55 3 -43 110 -42 110 -181 3 -180 2 -44 -112 -44
-113 -52 -3 c-29 -2 -52 1 -52 5 0 4 70 180 156 391 l157 383 61 -3 60 -3 32
-80z m474 -30 l0 -65 55 0 55 0 0 -35 0 -35 -55 0 -55 0 0 -214 c0 -245 0
-246 76 -246 43 0 44 0 44 -34 0 -34 0 -35 -54 -41 -69 -9 -108 0 -137 31 -24
25 -24 29 -27 265 l-3 239 -35 0 c-32 0 -34 2 -34 34 0 33 2 35 37 38 36 3 37
4 51 66 13 61 14 62 48 62 l34 0 0 -65z m6600 -1291 c0 -104 110 -150 174 -73
14 16 28 45 32 65 6 35 18 38 62 15 13 -7 -68 -85 -131 -125 -37 -25 -205 -19
-257 8 l-34 19 67 63 c37 35 72 64 77 64 6 0 10 -16 10 -36z m-935 -154 c4
-25 16 -47 32 -60 l26 -20 -25 0 c-78 0 -137 35 -118 70 9 18 54 49 72 50 3 0
9 -18 13 -40z m264 5 c32 -12 -52 -67 -123 -80 l-38 -8 26 26 c13 13 28 41 31
60 l7 35 41 -14 c23 -8 48 -17 56 -19z m-6679 -500 l0 -345 198 -2 197 -3 3
-42 3 -43 -255 0 -256 0 0 390 0 390 55 0 55 0 0 -345z m1820 230 l0 -65 60 0
60 0 0 -35 0 -34 -57 -3 -58 -3 0 -211 c0 -244 0 -244 77 -244 l49 0 -3 -32
c-3 -27 -8 -33 -38 -41 -56 -14 -119 -3 -149 27 l-26 26 -5 238 -5 237 -32 3
c-30 3 -33 6 -33 38 0 32 2 34 35 34 30 0 36 4 41 28 23 100 23 102 54 102
l30 0 0 -65z m-973 -70 c59 -18 106 -65 122 -122 6 -21 11 -114 11 -207 0
-187 6 -206 62 -206 24 0 28 -4 28 -29 0 -26 -4 -29 -43 -34 -78 -11 -119 11
-138 72 l-11 36 -46 -46 c-32 -32 -62 -51 -92 -59 -54 -15 -136 -8 -179 15
-85 44 -104 192 -36 273 41 48 95 65 233 70 l122 4 0 35 c0 45 -23 97 -51 117
-30 20 -129 21 -168 1 -16 -8 -34 -28 -40 -46 -10 -30 -13 -31 -56 -26 -25 2
-49 7 -52 10 -11 12 38 93 69 114 63 42 177 54 265 28z m645 -13 c30 -13 55
-33 68 -54 30 -50 27 -66 -17 -70 -32 -3 -43 2 -68 31 -23 26 -42 35 -79 41
-122 18 -205 -37 -166 -111 15 -26 53 -44 150 -69 134 -34 192 -73 210 -141
41 -151 -128 -254 -341 -208 -59 13 -121 62 -138 109 -9 28 -8 30 17 36 15 3
34 8 42 10 9 2 22 -9 32 -25 27 -49 69 -63 165 -59 78 3 87 5 109 31 32 37 31
81 -1 111 -15 14 -68 35 -137 55 -62 18 -128 42 -146 53 -89 55 -85 198 7 252
48 28 87 35 171 32 49 -2 91 -10 122 -24z m7217 -610 c1 -96 -16 -149 -105
-317 -29 -55 -72 -147 -94 -205 -54 -136 -62 -151 -171 -321 -67 -106 -188
-339 -457 -882 -208 -420 -370 -733 -375 -728 -12 12 -20 389 -10 485 4 43 4
188 -1 322 -10 276 -13 263 71 300 83 37 143 139 143 245 0 66 -28 95 -99 105
-28 3 -48 10 -46 14 3 5 40 28 83 53 43 25 116 73 162 108 47 35 134 99 194
142 182 132 328 251 404 332 125 131 224 303 269 464 l18 66 7 -50 c3 -27 7
-87 7 -133z m-1501 -791 c20 -11 82 -57 137 -103 l100 -83 -57 -5 c-68 -6
-103 -29 -136 -91 -21 -38 -23 -53 -18 -109 3 -36 12 -83 20 -105 20 -54 21
-144 1 -151 -8 -3 -19 -22 -26 -42 -6 -21 -53 -140 -104 -267 -51 -126 -128
-337 -171 -467 -43 -130 -80 -236 -82 -234 -5 6 126 768 153 892 15 64 39 162
55 218 35 124 41 206 32 404 -5 98 -3 153 3 156 23 10 58 5 93 -13z m4687
-1016 c0 -5 -17 -11 -38 -13 -32 -3 -40 -9 -56 -40 -97 -193 -107 -584 -25
-985 27 -133 9 -95 -24 50 -53 233 -57 273 -56 513 1 236 10 319 46 403 28 64
60 89 112 85 23 -2 41 -7 41 -13z m98 -200 c21 -81 33 -224 18 -210 -13 13
-48 174 -56 260 -6 56 -5 58 9 35 8 -14 21 -52 29 -85z m-1257 -398 c-59 -128
-151 -272 -317 -494 -88 -116 -159 -214 -159 -218 0 -14 123 61 199 122 45 36
144 133 219 215 90 99 138 145 140 134 6 -27 -44 -122 -90 -172 -64 -69 -254
-215 -397 -302 -192 -119 -270 -201 -271 -287 0 -23 -14 -45 -59 -93 -73 -77
-137 -187 -234 -402 -41 -91 -94 -203 -118 -250 -42 -82 -44 -84 -47 -51 -2
18 4 57 13 85 25 76 217 438 321 605 51 80 88 147 84 149 -16 6 -66 -27 -164
-107 -54 -45 -120 -93 -146 -106 -49 -25 -139 -50 -147 -41 -3 3 22 18 54 35
33 16 100 57 149 90 244 164 444 387 779 866 157 225 217 307 221 302 3 -2
-11 -38 -30 -80z m1283 -93 c1 -136 -16 -250 -73 -486 -39 -159 -56 -288 -49
-356 4 -34 10 -43 28 -48 13 -3 29 -3 34 1 6 3 20 1 31 -5 19 -10 20 -19 18
-166 -3 -142 -4 -154 -20 -150 -14 3 -18 -2 -18 -23 0 -38 7 -42 47 -26 20 8
45 15 56 15 19 0 19 -2 -8 -30 -31 -33 -81 -48 -98 -31 -7 7 -15 62 -18 129
-6 112 -18 162 -39 162 -18 0 -89 -71 -113 -113 -14 -23 -35 -71 -47 -107 -30
-83 -36 -90 -68 -84 -25 5 -30 -1 -64 -68 -44 -86 -155 -274 -377 -641 -90
-148 -161 -271 -158 -273 9 -10 151 161 218 262 36 54 119 194 184 309 122
215 195 336 195 322 0 -16 -127 -277 -192 -395 -119 -214 -240 -383 -382 -529
-49 -51 -93 -93 -97 -93 -17 0 -9 61 16 122 24 58 82 150 246 383 131 186 185
322 177 445 -14 199 -140 237 -378 116 l-85 -43 -18 -64 c-10 -35 -61 -194
-113 -354 -107 -330 -152 -498 -189 -703 -28 -159 -45 -217 -82 -280 -33 -56
-46 -44 -51 46 -4 69 6 105 84 307 36 93 45 282 20 432 -16 97 -63 268 -91
336 l-15 35 -52 -14 c-83 -22 -140 -19 -167 10 -20 22 -21 28 -11 65 22 82
115 104 200 47 l40 -27 43 25 c23 13 87 41 142 61 133 49 192 78 237 115 43
35 41 50 -7 73 -23 11 -35 24 -35 37 0 29 -18 25 -74 -15 -73 -51 -126 -45
-126 16 0 14 11 52 25 83 14 31 25 59 25 61 0 3 -12 5 -27 5 -21 0 -46 -20
-113 -90 -47 -49 -91 -90 -98 -90 -29 0 -9 52 43 116 52 63 75 108 62 120 -3
3 -20 3 -38 -1 -24 -5 -65 -38 -141 -113 -59 -59 -118 -112 -130 -119 -33 -18
-68 -16 -106 7 -38 23 -38 23 -108 -43 -34 -32 -47 -38 -75 -35 l-34 3 0 95
c0 97 31 260 48 260 11 0 3 -245 -8 -272 -6 -15 -2 -18 21 -18 23 0 50 22 144
118 68 70 130 123 148 130 18 6 32 7 32 2 0 -29 -28 -71 -85 -125 -67 -64 -85
-103 -42 -89 61 18 90 39 183 127 96 90 131 116 180 131 30 9 54 -18 54 -61
l0 -35 36 21 c19 12 48 21 65 21 27 0 29 -3 29 -35 0 -20 -11 -58 -25 -85 -26
-51 -33 -100 -15 -100 34 0 101 54 205 164 116 124 173 166 224 166 20 0 21
-2 11 -15 -13 -16 -13 -16 30 -19 38 -3 -9 -92 -99 -189 -62 -67 -108 -133
-99 -142 2 -2 41 6 88 17 112 26 235 23 277 -8 48 -36 66 -78 67 -155 0 -38 3
-65 7 -61 43 48 191 230 225 278 103 144 151 307 141 472 -4 54 -3 91 2 87 9
-5 31 47 59 135 38 118 82 420 82 561 0 48 3 102 7 120 l7 34 7 -30 c4 -16 7
-85 8 -151z m-3630 -158 c17 -20 -26 -180 -78 -290 -99 -208 -314 -451 -536
-608 -65 -46 -276 -157 -300 -158 -23 -1 -231 -291 -314 -438 -46 -83 -47 -90
-25 -133 14 -28 19 -30 52 -24 60 11 113 44 192 120 80 77 127 115 141 115 5
0 9 -16 9 -35 0 -23 -9 -45 -29 -67 -54 -63 -64 -98 -28 -98 40 1 101 37 190
114 104 90 133 110 147 101 17 -10 12 -34 -15 -69 -14 -18 -25 -41 -25 -51 0
-27 60 -14 160 37 111 56 235 177 350 343 46 66 105 150 132 186 26 37 48 76
48 87 0 12 -13 30 -30 42 -35 25 -39 61 -11 89 18 18 43 27 122 45 39 8 106
87 187 217 68 111 140 199 162 199 16 0 11 -52 -11 -99 -11 -25 -43 -74 -73
-110 -29 -36 -61 -78 -70 -93 l-18 -28 41 0 c59 0 218 63 259 103 18 18 59 86
93 154 43 88 69 129 94 148 43 34 59 25 53 -30 -4 -28 -20 -64 -52 -110 -54
-78 -63 -108 -48 -147 9 -25 7 -30 -15 -48 -14 -11 -36 -20 -48 -20 -18 0 -33
-17 -71 -82 -108 -187 -236 -361 -395 -538 l-94 -105 22 -22 c21 -20 23 -32
23 -123 0 -123 9 -144 53 -134 58 12 88 34 138 104 52 70 92 105 109 95 21
-13 8 -38 -50 -100 -33 -35 -60 -69 -60 -75 0 -5 18 -10 39 -10 31 0 50 9 91
43 75 60 111 84 141 91 25 5 27 3 32 -44 9 -71 11 -73 78 -67 74 7 130 33 202
98 31 28 57 46 57 39 0 -29 -32 -80 -74 -117 -80 -70 -188 -93 -254 -53 -30
18 -40 34 -57 84 -5 17 -13 13 -63 -36 -31 -30 -68 -63 -82 -72 -36 -24 -82
-20 -110 9 -25 27 -39 24 -93 -21 -38 -32 -92 -32 -108 -2 -19 35 -27 105 -20
170 5 41 4 58 -4 58 -26 0 -97 -64 -162 -145 -91 -112 -191 -187 -152 -113 6
12 27 40 45 61 30 33 44 67 28 67 -15 0 -55 -29 -114 -83 -36 -33 -85 -69
-109 -80 -43 -19 -45 -19 -58 -1 -17 23 -16 37 2 98 8 27 15 53 15 58 0 16
-23 7 -70 -27 -101 -74 -184 -94 -227 -53 -13 12 -23 27 -23 35 0 24 -24 13
-104 -46 -70 -52 -129 -81 -165 -81 -6 0 -21 21 -31 46 l-20 46 -38 -22 c-115
-69 -146 -83 -184 -84 -33 -1 -45 5 -69 32 -16 17 -33 32 -38 32 -16 0 -84
-84 -125 -155 -22 -37 -60 -90 -85 -118 -43 -48 -106 -85 -120 -72 -3 4 -6 46
-6 93 0 77 4 95 31 152 43 90 83 141 139 178 52 35 122 50 153 33 18 -10 32 8
161 201 78 116 140 212 139 214 -2 1 -35 -4 -73 -12 -102 -22 -228 -20 -273 4
-44 23 -75 71 -70 109 l4 28 50 -52 50 -53 72 0 c95 0 163 15 248 56 154 73
255 189 564 654 142 214 243 331 349 403 22 15 26 15 61 -3 20 -10 42 -25 49
-34z m2799 -247 c4 -30 -39 -75 -62 -66 -23 9 -20 31 10 67 30 35 48 35 52 -1z
m649 -241 c-3 -8 -6 -5 -6 6 -1 11 2 17 5 13 3 -3 4 -12 1 -19z m-5437 -90 c0
-68 -31 -159 -105 -308 -51 -103 -81 -178 -73 -185 7 -7 183 35 338 81 171 51
315 84 373 84 40 0 42 -2 27 -30 -14 -27 -45 -41 -115 -55 -33 -7 -121 -29
-195 -50 -74 -21 -209 -54 -300 -74 l-165 -37 -44 -80 c-53 -96 -83 -143 -226
-349 -104 -150 -225 -338 -225 -350 0 -3 18 4 40 15 22 11 68 54 105 98 60 71
118 122 137 122 16 0 7 -42 -17 -78 -26 -38 -33 -82 -14 -82 6 0 32 22 57 49
62 65 80 69 112 27 l25 -34 30 25 c28 24 34 25 105 19 41 -3 90 -2 109 4 41
12 46 8 30 -18 -31 -50 -120 -71 -174 -42 -27 15 -28 14 -77 -40 -47 -52 -50
-54 -64 -36 -8 11 -14 37 -14 58 l0 39 -27 -15 c-16 -8 -46 -33 -68 -55 -21
-23 -46 -41 -54 -41 -19 0 -51 29 -51 47 0 23 -14 15 -65 -38 -63 -65 -123
-109 -147 -109 -14 0 -18 8 -18 35 0 19 -4 35 -9 35 -4 0 -36 -31 -69 -69 -34
-37 -75 -74 -91 -81 -37 -15 -97 -6 -105 17 -11 27 5 85 39 148 33 59 40 85
37 134 -2 20 -6 22 -29 16 -44 -11 -99 -57 -193 -163 -70 -79 -102 -106 -151
-131 -96 -48 -101 -46 -97 43 3 67 1 73 -14 65 -10 -5 -34 -30 -55 -55 -45
-54 -90 -84 -126 -84 -35 0 -50 31 -45 91 3 27 2 49 -2 49 -15 0 -97 -64 -140
-110 -55 -58 -136 -120 -157 -120 -13 0 -15 10 -9 62 15 148 75 296 218 538
111 189 105 176 138 293 16 56 40 129 54 162 13 33 47 116 76 185 43 105 100
282 100 314 0 11 -23 -19 -92 -119 -77 -113 -182 -289 -348 -585 -267 -478
-411 -699 -575 -885 l-26 -30 5 52 c8 78 27 114 208 388 91 138 191 292 222
343 110 182 186 366 220 534 27 130 24 133 -50 53 -156 -167 -301 -382 -559
-830 -114 -196 -239 -402 -304 -495 -77 -112 -161 -220 -172 -220 -14 0 0 78
25 135 13 28 54 97 92 155 40 61 79 133 91 171 12 37 49 109 82 160 219 343
397 652 356 619 -10 -8 -78 -83 -152 -167 -252 -287 -404 -426 -531 -486 -53
-25 -72 -29 -120 -25 -67 5 -100 25 -134 83 -34 59 -32 160 4 235 26 53 60
100 72 100 11 0 5 -84 -9 -145 -29 -119 -13 -182 44 -177 54 4 185 60 268 114
105 68 207 170 377 373 79 94 188 213 243 265 74 71 107 110 127 152 27 57 84
118 111 118 32 0 4 -67 -79 -190 -55 -83 -64 -100 -48 -100 14 0 46 41 116
148 67 102 111 143 167 157 24 6 28 3 44 -39 18 -47 17 -69 -11 -216 l-7 -35
28 25 c15 14 62 94 103 180 63 128 86 165 134 213 42 43 64 58 80 55 22 -3 23
-6 22 -118 -2 -138 -18 -196 -123 -448 -38 -93 -82 -204 -97 -248 -14 -43 -41
-104 -60 -134 -18 -30 -61 -115 -94 -188 -64 -142 -77 -165 -126 -227 -17 -22
-34 -53 -37 -70 -2 -16 -11 -44 -18 -62 -7 -18 -10 -35 -6 -39 16 -17 139 82
381 305 156 144 270 237 326 266 l29 15 -11 -31 c-22 -62 -78 -127 -189 -216
-63 -51 -130 -111 -150 -133 -37 -40 -85 -128 -75 -137 3 -3 25 4 49 16 44 21
79 55 205 199 35 40 67 72 73 72 18 0 8 -46 -23 -100 -86 -152 -98 -190 -56
-190 35 0 89 44 173 142 126 145 198 178 265 121 39 -33 38 -55 -14 -174 -20
-45 -34 -84 -31 -87 11 -11 103 47 155 97 73 72 143 179 265 411 54 102 112
208 129 235 18 28 36 56 41 64 7 12 -4 13 -66 8 -88 -7 -160 -23 -364 -76
-158 -42 -161 -44 -140 -93 6 -15 2 -18 -23 -18 -35 0 -72 39 -72 75 0 20 13
27 113 58 114 37 422 116 534 137 l62 12 101 227 c57 124 125 268 153 320 48
91 50 93 63 70 7 -13 13 -50 14 -81z m5665 -648 c23 -45 48 -178 41 -221 -7
-43 -26 -89 -36 -89 -4 0 -3 21 2 48 8 42 -9 209 -28 275 -8 27 4 20 21 -13z
m-5607 -192 c7 -7 12 -38 12 -70 0 -55 -1 -58 -24 -58 -45 0 -72 71 -46 121
12 21 40 25 58 7z"/>
<path d="M2975 17786 c-52 -23 -70 -52 -70 -113 0 -48 4 -58 28 -79 55 -47
168 -21 223 51 21 28 29 51 32 96 l4 59 -93 0 c-55 -1 -106 -6 -124 -14z"/>
<path d="M3184 16326 c-48 -21 -71 -59 -84 -138 -21 -123 2 -251 52 -293 29
-24 38 -27 95 -23 52 3 68 9 93 33 43 41 55 86 54 205 0 116 -18 171 -68 204
-36 23 -105 29 -142 12z"/>
<path d="M2565 16325 c-79 -29 -112 -112 -102 -260 8 -140 55 -199 157 -199
121 0 164 61 164 234 1 117 -20 184 -66 214 -36 23 -106 29 -153 11z"/>
<path d="M1782 14738 c-8 -24 -39 -107 -69 -186 -31 -78 -54 -145 -51 -147 3
-3 68 -4 145 -3 l140 3 -68 175 c-38 96 -68 181 -69 188 0 26 -16 10 -28 -30z"/>
<path d="M3863 14600 c-52 -31 -67 -71 -71 -190 -6 -160 20 -228 99 -251 53
-16 108 1 148 46 38 44 51 90 51 191 0 70 -4 89 -27 134 -45 84 -129 114 -200
70z"/>
<path d="M2724 12902 c-46 -22 -79 -68 -89 -124 l-7 -38 161 0 161 0 0 27 c0
41 -36 106 -69 126 -46 27 -109 31 -157 9z"/>
<path d="M1782 11318 c-8 -24 -39 -107 -69 -186 -31 -78 -54 -145 -51 -147 3
-3 68 -4 145 -3 l140 3 -68 175 c-38 96 -68 181 -69 188 0 26 -16 10 -28 -30z"/>
<path d="M2826 11200 c-30 -9 -72 -44 -87 -71 -4 -9 -12 -35 -18 -58 l-9 -41
165 0 165 0 -7 38 c-8 47 -33 90 -65 113 -30 22 -103 32 -144 19z"/>
<path d="M2744 9482 c-46 -22 -79 -68 -89 -124 l-7 -38 165 0 165 0 -10 42
c-12 56 -41 102 -74 117 -49 22 -106 23 -150 3z"/>
<path d="M3396 9490 c-30 -9 -72 -44 -87 -71 -4 -9 -12 -35 -18 -58 l-9 -41
165 0 165 0 -7 38 c-8 47 -33 90 -65 113 -30 22 -103 32 -144 19z"/>
<path d="M1782 7898 c-8 -24 -39 -107 -69 -186 -31 -78 -54 -145 -51 -147 3
-3 68 -4 145 -3 l140 3 -68 175 c-38 96 -68 181 -69 188 0 26 -16 10 -28 -30z"/>
<path d="M2273 5815 c-17 -7 -39 -25 -48 -38 -17 -26 -22 -89 -10 -126 13 -43
98 -65 162 -40 65 24 122 109 123 182 l0 37 -97 0 c-61 -1 -110 -6 -130 -15z"/>
<path d="M13554 2066 c-8 -20 4 -86 15 -86 34 0 41 92 8 98 -9 2 -20 -4 -23
-12z"/>
<path d="M12745 1987 c-4 -8 -34 -37 -67 -63 -67 -52 -98 -95 -98 -136 0 -45
19 -43 67 7 44 46 122 190 110 202 -4 3 -9 -1 -12 -10z"/>
<path d="M12470 1541 c-74 -27 -229 -101 -262 -125 -16 -11 -15 -19 11 -102
28 -89 64 -268 76 -378 4 -32 10 -54 15 -50 17 18 95 213 161 403 37 108 74
215 83 239 18 51 18 51 -84 13z"/>
<path d="M11983 1458 c-40 -52 -14 -76 62 -59 30 7 55 16 55 21 0 5 -12 18
-26 29 -30 23 -76 28 -91 9z"/>
<path d="M9824 2758 c-107 -109 -195 -222 -339 -433 -117 -172 -214 -307 -272
-380 l-48 -59 100 69 c425 294 593 490 696 813 20 63 21 74 9 82 -30 19 -48 8
-146 -92z"/>
<path d="M10515 2233 c-11 -3 -59 -20 -107 -39 -48 -19 -96 -34 -107 -34 -13
0 -30 -18 -52 -57 -50 -89 -127 -195 -249 -343 -61 -74 -138 -175 -171 -223
-61 -89 -143 -249 -137 -268 4 -13 165 88 251 158 97 80 204 197 316 347 145
194 313 445 306 456 -6 10 -17 11 -50 3z"/>
<path d="M10099 2090 c-19 -11 -15 -53 6 -70 10 -8 18 -4 34 16 28 36 28 64
-1 64 -13 0 -30 -5 -39 -10z"/>
<path d="M8619 1300 c-39 -11 -106 -59 -132 -94 -36 -47 -74 -125 -90 -189
l-15 -56 28 14 c29 15 89 83 152 170 20 28 54 67 77 88 44 40 51 61 25 71 -9
3 -16 6 -17 5 -1 0 -14 -4 -28 -9z"/>
<path d="M7702 1657 c-20 -22 -86 -157 -79 -163 2 -2 15 9 29 24 24 24 83 151
75 159 -2 1 -13 -7 -25 -20z"/>
</g>
</svg>
