<?xml version="1.0" standalone="no"?>
<!DOCTYPE svg PUBLIC "-//W3C//DTD SVG 20010904//EN"
 "http://www.w3.org/TR/2001/REC-SVG-20010904/DTD/svg10.dtd">
<svg version="1.0" xmlns="http://www.w3.org/2000/svg"
 width="669.000000pt" height="669.000000pt" viewBox="0 0 669.000000 669.000000"
 preserveAspectRatio="xMidYMid meet">
<metadata>
Created by potrace 1.14, written by Peter Selinger 2001-2017
</metadata>
<g transform="translate(0.000000,669.000000) scale(0.100000,-0.100000)"
fill="#000000" stroke="none">
<path d="M709 4487 c-110 -107 -363 -197 -601 -214 l-88 -6 0 -63 0 -63 167
-4 c235 -5 259 -8 291 -41 l27 -26 3 -788 c2 -547 0 -798 -8 -824 -19 -66 -43
-72 -282 -76 l-208 -4 0 -74 0 -74 632 2 632 3 7 27 c4 16 3 28 -1 28 -5 0 -5
12 -1 28 17 62 16 62 -162 62 -192 1 -240 9 -276 44 l-26 26 0 883 c0 485 4
948 8 1030 l8 147 -49 0 c-38 0 -55 -5 -73 -23z"/>
<path d="M2945 4484 c-130 -54 -191 -66 -365 -70 -212 -6 -397 16 -635 76 -76
18 -70 30 -84 -182 -7 -106 -15 -211 -17 -233 -2 -22 -6 -69 -9 -105 -3 -36
-13 -130 -21 -210 -8 -80 -17 -172 -21 -205 -5 -50 -13 -69 -49 -118 -37 -50
-44 -66 -44 -106 0 -94 78 -140 156 -92 35 21 64 75 71 132 7 49 21 61 128
113 64 30 150 48 213 44 28 -2 48 0 46 4 -3 5 5 6 18 3 12 -2 45 -9 71 -15
161 -34 275 -158 329 -358 28 -106 30 -330 4 -449 -11 -46 -23 -83 -28 -83 -5
0 -6 -5 -3 -11 12 -18 -55 -140 -102 -187 -128 -128 -411 -150 -611 -48 -29
15 -55 33 -59 41 -3 8 -11 15 -17 15 -7 0 -21 16 -31 35 -28 50 -13 79 65 135
102 72 131 149 92 250 -46 119 -210 156 -314 70 -137 -113 -126 -343 27 -535
69 -87 202 -163 337 -191 114 -25 355 -14 469 20 48 14 93 27 100 28 8 2 19 8
26 13 6 6 40 26 74 45 62 35 175 137 215 195 33 49 73 141 97 223 32 112 31
343 -1 455 -12 44 -30 93 -39 110 -10 18 -17 34 -18 37 -2 16 -65 102 -108
147 -89 94 -235 171 -367 192 -103 17 -220 28 -220 20 0 -3 -29 -9 -65 -12
-53 -5 -196 -46 -289 -83 -16 -6 -18 -3 -12 32 7 52 12 103 26 259 6 72 14
137 17 145 3 8 5 33 5 55 -1 64 2 65 99 44 205 -44 425 -42 576 6 78 24 200
95 210 121 3 8 10 14 17 14 6 0 26 23 45 50 19 28 37 50 40 50 4 0 7 10 8 21
1 12 9 29 18 39 17 19 17 71 0 76 -5 2 -37 -8 -70 -22z"/>
<path d="M4169 4506 c-2 -2 -29 -6 -59 -9 -30 -2 -66 -9 -80 -15 -14 -5 -45
-18 -70 -28 -69 -28 -158 -94 -237 -178 -40 -42 -73 -80 -74 -84 -5 -20 -23
-52 -31 -52 -4 0 -8 -4 -8 -9 0 -5 -16 -37 -35 -72 -20 -34 -34 -68 -31 -76 3
-7 1 -13 -3 -13 -12 0 -66 -174 -85 -270 -20 -101 -37 -265 -37 -348 1 -37 0
-74 0 -82 -1 -30 20 -197 35 -285 31 -169 127 -413 192 -486 8 -8 14 -20 14
-25 0 -5 39 -48 88 -94 95 -93 186 -148 288 -175 73 -19 212 -19 284 0 49 13
167 62 180 75 3 3 31 25 63 49 162 123 288 362 347 661 19 95 23 149 24 310 1
223 -5 308 -33 438 -40 182 -107 349 -191 472 -76 112 -220 225 -334 264 -66
23 -196 43 -207 32z m75 -142 c76 -10 183 -108 240 -222 37 -74 81 -224 73
-246 -3 -8 -1 -18 3 -22 29 -29 36 -754 9 -974 -5 -41 -9 -84 -9 -95 -1 -50
-43 -194 -75 -254 -44 -84 -113 -163 -173 -199 -41 -24 -57 -27 -132 -27 -94
0 -123 11 -184 68 -20 19 -38 32 -41 29 -3 -3 -5 -1 -5 5 0 5 -11 23 -25 39
-38 44 -82 139 -105 226 -36 143 -44 275 -45 678 0 413 10 531 56 671 49 149
125 251 221 297 70 34 101 42 138 35 14 -3 38 -7 54 -9z"/>
<path d="M6109 4486 c-67 -66 -201 -131 -353 -170 -91 -24 -248 -50 -277 -46
-55 8 -59 3 -59 -64 l0 -64 183 -5 c100 -2 195 -7 210 -9 39 -7 80 -39 88 -69
12 -43 10 -1573 -2 -1608 -20 -58 -49 -65 -281 -69 l-208 -4 0 -74 0 -74 633
0 c349 0 636 3 640 6 3 3 2 17 -3 30 -5 13 -6 24 -2 24 4 0 6 20 4 45 l-4 45
-162 0 c-191 1 -239 9 -275 44 l-26 26 0 848 c0 466 4 929 8 1030 l8 182 -49
0 c-38 0 -55 -5 -73 -24z"/>
</g>
</svg>
